# xmcd CD database file
#
# Track frame offsets:
#	150
#	22560
#	47314
#	68235
#	88545
#	117826
#	136247
#	158177
#	181543
#	207396
#	233417
#
# Disc length: 3244 seconds
#
# Revision: 0
# Processed by: cddbd v1.4PL0 Copyright (c) Steve Scherf et al.
# Submitted via: CDex 1.50beta10
#
DISCID=770caa0b
DTITLE=annette marquard trio  - between heaven and earth AM3
DYEAR=1900
DGENRE=Blues
TTITLE0=i forgive you
TTITLE1=time after time
TTITLE2=i dont know
TTITLE3=company
TTITLE4=nietzsches eyes
TTITLE5=que sera
TTITLE6=anthem
TTITLE7=smile
TTITLE8=mark of gain
TTITLE9=could you believe
TTITLE10=secret marriage
EXTD=
EXTT0=
EXTT1=
EXTT2=
EXTT3=
EXTT4=
EXTT5=
EXTT6=
EXTT7=
EXTT8=
EXTT9=
EXTT10=
PLAYORDER=
